<svg width="24" height="24" viewBox="0 0 24 24" fill="none" xmlns="http://www.w3.org/2000/svg">
<path fill-rule="evenodd" clip-rule="evenodd" d="M4 12C4 7.56081 7.67356 4 12.1579 4C15.8423 4 18.9794 6.40376 19.9814 9.72348L21.248 8.27837L22.752 9.59663L19.5637 13.2343L15.2976 11.1484L16.1761 9.35164L18.0555 10.2706C17.2956 7.81023 14.9562 6 12.1579 6C8.73584 6 6 8.7072 6 12C6 15.2928 8.73584 18 12.1579 18C13.7424 18 15.319 17.4094 16.5201 16.2348L17.9185 17.6647C16.3242 19.2238 14.2372 20 12.1579 20C7.67356 20 4 16.4392 4 12Z" fill="black"/>
</svg>
