<svg width="24" height="24" viewBox="0 0 24 24" fill="none" xmlns="http://www.w3.org/2000/svg">
<g id="Icons/Edit">
<rect id="Bg" width="24" height="24" fill="white" fill-opacity="0.01"/>
<path id="Fill 7" fill-rule="evenodd" clip-rule="evenodd" d="M22.2127 21.0605H1.77404C1.34652 21.0605 1.00003 21.4073 1.00003 21.8348C1.00003 22.2621 1.34652 22.609 1.77404 22.609H22.2127C22.6405 22.609 22.987 22.2621 22.987 21.8348C22.987 21.4073 22.6405 21.0605 22.2127 21.0605Z" fill="#121212"/>
<path id="Fill 8" fill-rule="evenodd" clip-rule="evenodd" d="M2.56496 14.614L11.7921 5.38724L14.3105 7.9052L5.08314 17.1326L2.55209 17.1452L2.56496 14.614ZM16.8287 5.38701L15.4053 6.81043L12.8871 4.29225L14.3105 2.86883L16.8287 5.38701ZM1.01807 14.2878L1.00001 17.9195C0.998883 18.126 1.0806 18.3246 1.22664 18.4709C1.37201 18.6161 1.56884 18.6975 1.77402 18.6975H1.77786L5.40932 18.6795C5.61337 18.6786 5.80862 18.5969 5.95286 18.4526L18.4709 5.9344C18.7731 5.63215 18.7731 5.1421 18.4709 4.83963L14.8579 1.22668C14.5555 0.924439 14.0656 0.924439 13.7632 1.22668L11.2447 3.74487L11.2441 3.74577L1.24492 13.7445C1.10046 13.8887 1.01897 14.0842 1.01807 14.2878Z" fill="#121212"/>
</g>
</svg>
