<svg width="24" height="24" viewBox="0 0 24 24" fill="none" xmlns="http://www.w3.org/2000/svg">
<g id="Icons/Mail">
<rect id="Bg" width="24" height="24" fill="white" fill-opacity="0.01"/>
<path id="Fill 1" fill-rule="evenodd" clip-rule="evenodd" d="M21.4506 6.98536L12.0001 13.5722L2.54935 6.98536V4.54927H21.4506V6.98536ZM21.4506 18.9942L16.101 12.6024L21.4506 8.87397V18.9942ZM3.43335 20.3522L9.17508 13.4918L11.557 15.1521C11.69 15.2449 11.8452 15.2912 12.0001 15.2912C12.1548 15.2912 12.31 15.2449 12.443 15.1521L14.8249 13.4918L20.5666 20.3522H3.43335ZM2.54935 8.87397L7.89899 12.6024L2.54935 18.9942V8.87397ZM22.2253 2.99989H1.77466C1.34689 2.99989 0.999969 3.34681 0.999969 3.77458V21.1269C0.999969 21.1378 1.00291 21.1479 1.00336 21.1588C1.00449 21.1866 1.00742 21.2139 1.01149 21.2414C1.0151 21.2651 1.01894 21.2886 1.02459 21.3117C1.03069 21.3367 1.03882 21.3607 1.04763 21.3851C1.05576 21.4083 1.06411 21.4314 1.0745 21.4535C1.08512 21.4763 1.09754 21.498 1.11041 21.5199C1.12351 21.5414 1.13639 21.5626 1.15107 21.5829C1.16552 21.6026 1.18133 21.6211 1.19805 21.6396C1.21589 21.6597 1.23441 21.6791 1.25428 21.6972C1.26264 21.7047 1.26874 21.7137 1.27755 21.7209C1.28297 21.7257 1.28997 21.727 1.29562 21.7315C1.35795 21.7808 1.42661 21.8212 1.50205 21.8497C1.51402 21.8542 1.52599 21.8569 1.53796 21.8607C1.61272 21.8849 1.69087 21.9014 1.77353 21.9014H1.77421H1.77443H1.77466H22.2253H22.2255H22.2258H22.2264C22.3091 21.9014 22.3872 21.8849 22.462 21.8607C22.4742 21.8569 22.4859 21.8542 22.4979 21.8497C22.5733 21.8212 22.642 21.7808 22.7041 21.7315C22.71 21.727 22.717 21.7257 22.7224 21.7209C22.7312 21.7137 22.7375 21.7047 22.7457 21.6972C22.7656 21.6791 22.7841 21.6597 22.8021 21.6396C22.8186 21.6211 22.8344 21.6026 22.8489 21.5829C22.8636 21.5626 22.8764 21.5414 22.8895 21.5199C22.9024 21.498 22.9148 21.4763 22.9255 21.4535C22.9358 21.4314 22.9442 21.4083 22.9523 21.3851C22.9609 21.3607 22.9693 21.3367 22.9751 21.3117C22.981 21.2886 22.9849 21.2651 22.9885 21.2414C22.9925 21.2139 22.9955 21.1866 22.9966 21.1588C22.9971 21.1479 23 21.1378 23 21.1269V3.77458C23 3.34681 22.6533 2.99989 22.2253 2.99989Z" fill="#121212"/>
</g>
</svg>
