<svg width="24" height="24" viewBox="0 0 24 24" fill="none" xmlns="http://www.w3.org/2000/svg">
<g id="Icons/Briefcase">
<rect id="Bg" width="24" height="24" fill="white" fill-opacity="0.01"/>
<path id="Fill 1" fill-rule="evenodd" clip-rule="evenodd" d="M21.4507 13.0142H16.2821V12.0934C16.2821 11.6654 15.9349 11.3187 15.5074 11.3187C15.0796 11.3187 14.7327 11.6654 14.7327 12.0934V13.0142H9.26732V12.0934C9.26732 11.6654 8.92041 11.3187 8.49265 11.3187C8.06511 11.3187 7.7182 11.6654 7.7182 12.0934V13.0142H2.54935V7.66916H8.31829C8.37453 7.68226 8.43257 7.69061 8.49265 7.69061C8.55295 7.69061 8.611 7.68226 8.66723 7.66916H15.3328C15.389 7.68226 15.4471 7.69061 15.5074 7.69061C15.5675 7.69061 15.6255 7.68226 15.6818 7.66916H21.4507V13.0142ZM21.4507 19.9085H2.54935V14.5635H7.7182V15.4326C7.7182 15.8606 8.06511 16.2073 8.49265 16.2073C8.92041 16.2073 9.26732 15.8606 9.26732 15.4326V14.5635H14.7327V15.4326C14.7327 15.8606 15.0796 16.2073 15.5074 16.2073C15.9349 16.2073 16.2821 15.8606 16.2821 15.4326V14.5635H21.4507V19.9085ZM9.26732 6.12003H14.7327V4.54923H9.26732V6.12003ZM22.2254 6.11981H16.2821V3.77456C16.2821 3.34657 15.9349 2.99989 15.5074 2.99989H8.49265C8.06511 2.99989 7.7182 3.34657 7.7182 3.77456V6.11981H1.77467C1.34713 6.11981 1 6.46672 1 6.89448V20.6832C1 21.111 1.34713 21.4577 1.77467 21.4577H22.2254C22.6529 21.4577 23 21.111 23 20.6832V6.89448C23 6.46672 22.6529 6.11981 22.2254 6.11981V6.11981Z" fill="#121212"/>
</g>
</svg>
