<svg width="65" height="64" viewBox="0 0 65 64" fill="none" xmlns="http://www.w3.org/2000/svg">
<g filter="url(#filter0_d_1_6062)">
<path d="M32.4694 12.8284C23.8313 12.8284 16.8268 19.7928 16.8268 28.384C16.8268 35.257 21.3089 41.0879 27.5242 43.1448C28.3059 43.2888 28.593 42.8074 28.593 42.3965C28.593 42.0256 28.5784 40.8001 28.5718 39.5003C24.2199 40.4413 23.3016 37.665 23.3016 37.665C22.5901 35.8669 21.5648 35.3889 21.5648 35.3889C20.1456 34.4234 21.6718 34.4432 21.6718 34.4432C23.2426 34.553 24.0697 36.0463 24.0697 36.0463C25.4649 38.4244 27.7291 37.7368 28.6217 37.3395C28.762 36.3339 29.1675 35.6478 29.6148 35.2594C26.1405 34.8659 22.488 33.5321 22.488 27.5716C22.488 25.8734 23.0991 24.4857 24.0998 23.3963C23.9373 23.0045 23.402 21.4224 24.2513 19.2797C24.2513 19.2797 25.5648 18.8616 28.5541 20.8742C29.8018 20.5294 31.14 20.3567 32.4694 20.3508C33.7987 20.3567 35.1379 20.5294 36.3881 20.8742C39.3738 18.8616 40.6855 19.2797 40.6855 19.2797C41.5369 21.4224 41.0013 23.0045 40.8388 23.3963C41.8417 24.4857 42.4487 25.8733 42.4487 27.5716C42.4487 33.5462 38.7893 34.8619 35.3061 35.2469C35.8672 35.7297 36.3671 36.6764 36.3671 38.1276C36.3671 40.2089 36.3489 41.8841 36.3489 42.3965C36.3489 42.8104 36.6305 43.2955 37.4235 43.1428C43.6354 41.0835 48.1118 35.2547 48.1118 28.384C48.1118 19.7928 41.1082 12.8284 32.4694 12.8284Z" fill="#161614"/>
<path d="M22.6854 34.9878C22.6511 35.065 22.5287 35.0882 22.4174 35.0352C22.3039 34.9845 22.2401 34.8791 22.2769 34.8015C22.3107 34.7219 22.4331 34.6997 22.5463 34.7532C22.66 34.8038 22.7248 34.9102 22.6854 34.9878ZM23.4549 35.6705C23.3803 35.7393 23.2344 35.7073 23.1354 35.5986C23.0331 35.4902 23.014 35.3452 23.0897 35.2753C23.1666 35.2067 23.3081 35.2387 23.4106 35.3473C23.5129 35.457 23.5328 35.6011 23.4548 35.6706L23.4549 35.6705ZM23.9828 36.544C23.8869 36.6103 23.7301 36.5482 23.6333 36.4098C23.5375 36.2716 23.5375 36.1057 23.6354 36.0392C23.7325 35.9727 23.8869 36.0325 23.985 36.1697C24.0807 36.3104 24.0807 36.4763 23.9827 36.5441L23.9828 36.544ZM24.8754 37.5558C24.7897 37.6497 24.6071 37.6246 24.4734 37.4962C24.3367 37.3708 24.2986 37.1928 24.3846 37.0988C24.4713 37.0046 24.655 37.031 24.7897 37.1583C24.9255 37.2835 24.967 37.4628 24.8756 37.5558H24.8754ZM26.0291 37.8974C25.9915 38.0191 25.8155 38.0745 25.6384 38.0228C25.4615 37.9695 25.3457 37.8267 25.3814 37.7036C25.4182 37.581 25.5948 37.5233 25.7733 37.5787C25.95 37.6318 26.0661 37.7734 26.0293 37.8974H26.0291ZM27.3423 38.0422C27.3467 38.1705 27.1965 38.2769 27.0105 38.2792C26.8234 38.2833 26.6721 38.1794 26.6702 38.0533C26.6702 37.9237 26.817 37.8183 27.004 37.8153C27.19 37.8116 27.3423 37.9147 27.3423 38.0422ZM28.6322 37.993C28.6545 38.1182 28.5252 38.2468 28.3406 38.2809C28.159 38.3139 27.9909 38.2367 27.9678 38.1126C27.9452 37.9842 28.0769 37.8558 28.2581 37.8225C28.4431 37.7905 28.6086 37.8658 28.6322 37.993Z" fill="#161614"/>
</g>
<defs>
<filter id="filter0_d_1_6062" x="0.312866" y="0" width="64.3129" height="64" filterUnits="userSpaceOnUse" color-interpolation-filters="sRGB">
<feFlood flood-opacity="0" result="BackgroundImageFix"/>
<feColorMatrix in="SourceAlpha" type="matrix" values="0 0 0 0 0 0 0 0 0 0 0 0 0 0 0 0 0 0 127 0" result="hardAlpha"/>
<feOffset dy="4"/>
<feGaussianBlur stdDeviation="2"/>
<feComposite in2="hardAlpha" operator="out"/>
<feColorMatrix type="matrix" values="0 0 0 0 0 0 0 0 0 0 0 0 0 0 0 0 0 0 0.25 0"/>
<feBlend mode="normal" in2="BackgroundImageFix" result="effect1_dropShadow_1_6062"/>
<feBlend mode="normal" in="SourceGraphic" in2="effect1_dropShadow_1_6062" result="shape"/>
</filter>
</defs>
</svg>
