<svg width="24" height="24" viewBox="0 0 24 24" fill="none" xmlns="http://www.w3.org/2000/svg">
<g id="Icons/Home">
<rect id="Bg" width="24" height="24" fill="white" fill-opacity="0.01"/>
<path id="Fill 1" fill-rule="evenodd" clip-rule="evenodd" d="M11.9935 2.86888L20.3437 11.2191H3.64323L11.9935 2.86888ZM15.3484 21.4385V17.1033C15.3484 16.676 15.0015 16.329 14.5742 16.329H9.46421C9.03669 16.329 8.68998 16.676 8.68998 17.1033V21.4385H2.54847V12.7676H21.4384V21.4385H15.3484ZM10.2384 21.4385H13.7999V17.8775H10.2384V21.4385ZM1.77423 22.9868H9.33442C9.37686 22.994 9.41974 23.0001 9.46421 23.0001H14.5742C14.6186 23.0001 14.6615 22.994 14.704 22.9868H22.2127C22.6402 22.9868 22.9869 22.6401 22.9869 22.2128V11.9933C22.9869 11.9416 22.9817 11.8904 22.9716 11.8405C22.9648 11.8067 22.9528 11.7751 22.9418 11.743C22.9366 11.7274 22.9336 11.711 22.9273 11.6958C22.9129 11.6613 22.8939 11.6295 22.8747 11.5976C22.868 11.5864 22.8634 11.5739 22.856 11.5629C22.8278 11.5209 22.7957 11.4816 22.7601 11.446L12.5408 1.22673C12.2384 0.92426 11.7485 0.92426 11.4461 1.22673L1.22685 11.446C1.19119 11.4816 1.15914 11.5207 1.13115 11.5626C1.12325 11.5746 1.11805 11.5879 1.11083 11.6001C1.09232 11.6313 1.07359 11.6622 1.05959 11.6958C1.05305 11.7116 1.05011 11.7286 1.04447 11.7446C1.03363 11.7762 1.02212 11.8071 1.01535 11.8403C1.00542 11.8904 1 11.9416 1 11.9933V22.2128C1 22.6401 1.34671 22.9868 1.77423 22.9868Z" fill="#121212"/>
</g>
</svg>
