<svg width="24" height="24" viewBox="0 0 24 24" fill="none" xmlns="http://www.w3.org/2000/svg">
<g id="Icons/User">
<rect id="Bg" width="24" height="24" fill="white" fill-opacity="0.01"/>
<path id="Fill 6" fill-rule="evenodd" clip-rule="evenodd" d="M11.9657 3.54939C14.3578 3.54939 16.3038 5.49516 16.3038 7.88724C16.3038 10.2793 14.3578 12.2255 11.9657 12.2255C9.57362 12.2255 7.62739 10.2793 7.62739 7.88724C7.62739 5.49516 9.57362 3.54939 11.9657 3.54939ZM11.9657 13.7747C15.2122 13.7747 17.8529 11.1335 17.8529 7.88723C17.8529 4.64074 15.2122 2 11.9657 2C8.7192 2 6.078 4.64074 6.078 7.88723C6.078 11.1335 8.7192 13.7747 11.9657 13.7747Z" fill="#121212"/>
<path id="Fill 8" fill-rule="evenodd" clip-rule="evenodd" d="M8.38468 16.3569H15.6153C18.5705 16.3569 21.0197 18.5649 21.3998 21.418H2.60044C2.98056 18.5649 5.42954 16.3569 8.38468 16.3569ZM1.7747 22.9672H22.2255C22.6535 22.9672 23.0002 22.6202 23.0002 22.1927C23.0002 18.1207 19.6873 14.8076 15.6153 14.8076H8.38468C4.31267 14.8076 1 18.1207 1 22.1927C1 22.6202 1.34669 22.9672 1.7747 22.9672Z" fill="#121212"/>
</g>
</svg>
